<?xml version="1.0" encoding="UTF-8" standalone="no"?>
<!DOCTYPE svg PUBLIC "-//W3C//DTD SVG 1.1//EN"
 "http://www.w3.org/Graphics/SVG/1.1/DTD/svg11.dtd">
<!-- Generated by graphviz version 2.38.0 (20140413.2041)
 -->
<!-- Title: %3 Pages: 1 -->
<svg width="667pt" height="453pt"
 viewBox="0.00 0.00 666.69 453.23" xmlns="http://www.w3.org/2000/svg" xmlns:xlink="http://www.w3.org/1999/xlink">
<g id="graph0" class="graph" transform="scale(1 1) rotate(0) translate(4 449.227)">
<title>%3</title>
<polygon fill="white" stroke="none" points="-4,4 -4,-449.227 662.69,-449.227 662.69,4 -4,4"/>
<!-- UP -->
<g id="node1" class="node"><title>UP</title>
<polygon fill="lightgray" stroke="black" points="130.249,-243.635 101.249,-243.635 101.249,-225.635 130.249,-225.635 130.249,-243.635"/>
<text text-anchor="middle" x="115.749" y="-232.435" font-family="Times New Roman,serif" font-size="9.00">UP</text>
</g>
<!-- PressRIGHT -->
<g id="node12" class="node"><title>PressRIGHT</title>
<ellipse fill="lightblue" stroke="black" cx="113.749" cy="-131.459" rx="45.9239" ry="45.9239"/>
<text text-anchor="middle" x="113.749" y="-129.259" font-family="Times New Roman,serif" font-size="9.00">PressRIGHT</text>
</g>
<!-- UP&#45;&gt;PressRIGHT -->
<g id="edge4" class="edge"><title>UP&#45;&gt;PressRIGHT</title>
<path fill="none" stroke="green" stroke-width="0.824147" stroke-dasharray="1,5" d="M115.585,-225.355C115.415,-216.766 115.134,-202.545 114.842,-187.781"/>
<polygon fill="green" stroke="green" stroke-width="0.824147" points="118.337,-187.465 114.64,-177.536 111.338,-187.603 118.337,-187.465"/>
</g>
<!-- PressLEFT -->
<g id="node13" class="node"><title>PressLEFT</title>
<ellipse fill="lightblue" stroke="black" cx="218.749" cy="-131.459" rx="41.0244" ry="41.0244"/>
<text text-anchor="middle" x="218.749" y="-129.259" font-family="Times New Roman,serif" font-size="9.00">PressLEFT</text>
</g>
<!-- UP&#45;&gt;PressLEFT -->
<g id="edge3" class="edge"><title>UP&#45;&gt;PressLEFT</title>
<path fill="none" stroke="red" stroke-width="1.04845" stroke-dasharray="1,5" d="M124.178,-225.355C136.813,-212.943 161.42,-188.772 182.366,-168.197"/>
<polygon fill="red" stroke="red" stroke-width="1.04845" points="184.915,-170.6 189.597,-161.095 180.01,-165.606 184.915,-170.6"/>
</g>
<!-- 1131 -->
<g id="node16" class="node"><title>1131</title>
<ellipse fill="white" stroke="black" cx="24.7487" cy="-131.459" rx="25" ry="25"/>
<text text-anchor="middle" x="24.7487" y="-129.259" font-family="Times New Roman,serif" font-size="9.00">1131</text>
</g>
<!-- UP&#45;&gt;1131 -->
<g id="edge15" class="edge"><title>UP&#45;&gt;1131</title>
<path fill="none" stroke="red" stroke-width="0.159641" d="M106.858,-225.624C95.2957,-215.039 74.6932,-195.604 58.7487,-177.421 54.0668,-172.082 49.3074,-166.157 44.8905,-160.408"/>
<polygon fill="red" stroke="red" stroke-width="0.159641" points="47.5227,-158.085 38.7135,-152.198 41.9292,-162.293 47.5227,-158.085"/>
</g>
<!-- DOWN -->
<g id="node2" class="node"><title>DOWN</title>
<polygon fill="lightgray" stroke="black" points="288.249,-243.635 243.249,-243.635 243.249,-225.635 288.249,-225.635 288.249,-243.635"/>
<text text-anchor="middle" x="265.749" y="-232.435" font-family="Times New Roman,serif" font-size="9.00">DOWN</text>
</g>
<!-- PressDOWN -->
<g id="node11" class="node"><title>PressDOWN</title>
<ellipse fill="lightblue" stroke="black" cx="323.749" cy="-131.459" rx="45.9239" ry="45.9239"/>
<text text-anchor="middle" x="323.749" y="-129.259" font-family="Times New Roman,serif" font-size="9.00">PressDOWN</text>
</g>
<!-- DOWN&#45;&gt;PressDOWN -->
<g id="edge7" class="edge"><title>DOWN&#45;&gt;PressDOWN</title>
<path fill="none" stroke="red" stroke-width="0.495252" stroke-dasharray="1,5" d="M270.495,-225.355C276.209,-215.388 286.269,-197.839 296.119,-180.657"/>
<polygon fill="red" stroke="red" stroke-width="0.495252" points="299.289,-182.165 301.226,-171.748 293.216,-178.683 299.289,-182.165"/>
</g>
<!-- DOWN&#45;&gt;PressRIGHT -->
<g id="edge10" class="edge"><title>DOWN&#45;&gt;PressRIGHT</title>
<path fill="none" stroke="green" stroke-width="0.251282" stroke-dasharray="1,5" d="M250.164,-225.602C230.603,-215.297 196.279,-196.47 168.749,-177.421 164.608,-174.556 160.389,-171.461 156.222,-168.283"/>
<polygon fill="green" stroke="green" stroke-width="0.251282" points="158.344,-165.499 148.307,-162.106 154.037,-171.018 158.344,-165.499"/>
</g>
<!-- DOWN&#45;&gt;PressLEFT -->
<g id="edge17" class="edge"><title>DOWN&#45;&gt;PressLEFT</title>
<path fill="none" stroke="red" stroke-width="0.225718" d="M261.903,-225.355C257.048,-214.906 248.323,-196.122 239.982,-178.167"/>
<polygon fill="red" stroke="red" stroke-width="0.225718" points="243.065,-176.496 235.677,-168.901 236.716,-179.445 243.065,-176.496"/>
</g>
<!-- RIGHT -->
<g id="node3" class="node"><title>RIGHT</title>
<polygon fill="lightgray" stroke="black" points="442.249,-325.597 397.249,-325.597 397.249,-307.597 442.249,-307.597 442.249,-325.597"/>
<text text-anchor="middle" x="419.749" y="-314.397" font-family="Times New Roman,serif" font-size="9.00">RIGHT</text>
</g>
<!-- RIGHT&#45;&gt;PressLEFT -->
<g id="edge8" class="edge"><title>RIGHT&#45;&gt;PressLEFT</title>
<path fill="none" stroke="red" stroke-width="0.111885" d="M397.219,-315.637C357.368,-314.377 274.792,-305.529 233.749,-255.848 217.153,-235.759 212.876,-207.17 212.988,-182.568"/>
<polygon fill="red" stroke="red" stroke-width="0.111885" points="216.495,-182.401 213.282,-172.305 209.497,-182.201 216.495,-182.401"/>
</g>
<!-- 928 -->
<g id="node14" class="node"><title>928</title>
<ellipse fill="white" stroke="black" cx="470.749" cy="-234.635" rx="21.4286" ry="21.4286"/>
<text text-anchor="middle" x="470.749" y="-232.435" font-family="Times New Roman,serif" font-size="9.00">928</text>
</g>
<!-- RIGHT&#45;&gt;928 -->
<g id="edge16" class="edge"><title>RIGHT&#45;&gt;928</title>
<path fill="none" stroke="green" stroke-width="0.260055" d="M425.015,-307.34C431.822,-296.666 444,-277.573 454.079,-261.771"/>
<polygon fill="green" stroke="green" stroke-width="0.260055" points="457.287,-263.249 459.714,-252.936 451.386,-259.485 457.287,-263.249"/>
</g>
<!-- LEFT -->
<g id="node4" class="node"><title>LEFT</title>
<polygon fill="lightgray" stroke="black" points="572.749,-420.286 534.749,-420.286 534.749,-402.286 572.749,-402.286 572.749,-420.286"/>
<text text-anchor="middle" x="553.749" y="-409.086" font-family="Times New Roman,serif" font-size="9.00">LEFT</text>
</g>
<!-- ghostx -->
<g id="node5" class="node"><title>ghostx</title>
<polygon fill="lightgray" stroke="black" points="516.749,-420.286 476.749,-420.286 476.749,-402.286 516.749,-402.286 516.749,-420.286"/>
<text text-anchor="middle" x="496.749" y="-409.086" font-family="Times New Roman,serif" font-size="9.00">ghostx</text>
</g>
<!-- ghostx&#45;&gt;PressDOWN -->
<g id="edge9" class="edge"><title>ghostx&#45;&gt;PressDOWN</title>
<path fill="none" stroke="green" stroke-width="0.222234" d="M476.32,-402.63C451.725,-392.381 410.853,-371.877 387.749,-341.345 351.959,-294.05 367.262,-270.087 349.749,-213.421 346.902,-204.209 343.815,-194.428 340.796,-184.967"/>
<polygon fill="green" stroke="green" stroke-width="0.222234" points="344.071,-183.718 337.688,-175.262 337.405,-185.853 344.071,-183.718"/>
</g>
<!-- ghostx&#45;&gt;928 -->
<g id="edge11" class="edge"><title>ghostx&#45;&gt;928</title>
<path fill="none" stroke="green" stroke-width="0.292423" stroke-dasharray="1,5" d="M495.495,-401.863C491.883,-377.604 481.33,-306.712 475.234,-265.767"/>
<polygon fill="green" stroke="green" stroke-width="0.292423" points="478.686,-265.181 473.752,-255.805 471.762,-266.212 478.686,-265.181"/>
</g>
<!-- 1071 -->
<g id="node17" class="node"><title>1071</title>
<ellipse fill="white" stroke="black" cx="523.749" cy="-316.597" rx="25" ry="25"/>
<text text-anchor="middle" x="523.749" y="-314.397" font-family="Times New Roman,serif" font-size="9.00">1071</text>
</g>
<!-- ghostx&#45;&gt;1071 -->
<g id="edge13" class="edge"><title>ghostx&#45;&gt;1071</title>
<path fill="none" stroke="red" stroke-width="0.165839" d="M499.145,-402.061C502.499,-390.547 508.787,-368.961 514.166,-350.494"/>
<polygon fill="red" stroke="red" stroke-width="0.165839" points="517.6,-351.219 517.037,-340.639 510.88,-349.261 517.6,-351.219"/>
</g>
<!-- 1393 -->
<g id="node18" class="node"><title>1393</title>
<ellipse fill="white" stroke="black" cx="474.749" cy="-24.7487" rx="25" ry="25"/>
<text text-anchor="middle" x="474.749" y="-22.5487" font-family="Times New Roman,serif" font-size="9.00">1393</text>
</g>
<!-- ghostx&#45;&gt;1393 -->
<g id="edge18" class="edge"><title>ghostx&#45;&gt;1393</title>
<path fill="none" stroke="red" stroke-width="0.173957" d="M503.889,-402.154C509.752,-395.482 518.277,-385.791 525.749,-377.345 539.933,-361.311 549.103,-360.929 557.749,-341.345 603.734,-237.188 626.037,-185.029 570.749,-85.4975 557.38,-61.4296 529.847,-45.8002 507.681,-36.5868"/>
<polygon fill="red" stroke="red" stroke-width="0.173957" points="508.845,-33.284 498.257,-32.9115 506.302,-39.8056 508.845,-33.284"/>
</g>
<!-- ghosty -->
<g id="node6" class="node"><title>ghosty</title>
<polygon fill="lightgray" stroke="black" points="557.249,-243.635 516.249,-243.635 516.249,-225.635 557.249,-225.635 557.249,-243.635"/>
<text text-anchor="middle" x="536.749" y="-232.435" font-family="Times New Roman,serif" font-size="9.00">ghosty</text>
</g>
<!-- 1463 -->
<g id="node19" class="node"><title>1463</title>
<ellipse fill="white" stroke="black" cx="536.749" cy="-131.459" rx="25" ry="25"/>
<text text-anchor="middle" x="536.749" y="-129.259" font-family="Times New Roman,serif" font-size="9.00">1463</text>
</g>
<!-- ghosty&#45;&gt;1463 -->
<g id="edge20" class="edge"><title>ghosty&#45;&gt;1463</title>
<path fill="none" stroke="green" stroke-width="0.410981" d="M536.749,-225.355C536.749,-212.597 536.749,-187.415 536.749,-166.484"/>
<polygon fill="green" stroke="green" stroke-width="0.410981" points="540.249,-166.32 536.749,-156.32 533.249,-166.32 540.249,-166.32"/>
</g>
<!-- ghostdistance -->
<g id="node7" class="node"><title>ghostdistance</title>
<polygon fill="lightgray" stroke="black" points="83.2487,-243.635 18.2487,-243.635 18.2487,-225.635 83.2487,-225.635 83.2487,-243.635"/>
<text text-anchor="middle" x="50.7487" y="-232.435" font-family="Times New Roman,serif" font-size="9.00">ghostdistance</text>
</g>
<!-- ghostdistance&#45;&gt;PressRIGHT -->
<g id="edge1" class="edge"><title>ghostdistance&#45;&gt;PressRIGHT</title>
<path fill="none" stroke="green" stroke-width="1.253" d="M55.9043,-225.355C62.2685,-215.134 73.5976,-196.94 84.5531,-179.346"/>
<polygon fill="green" stroke="green" stroke-width="1.253" points="87.563,-181.134 89.8778,-170.795 81.6208,-177.434 87.563,-181.134"/>
</g>
<!-- dotx -->
<g id="node8" class="node"><title>dotx</title>
<polygon fill="lightgray" stroke="black" points="182.749,-243.635 150.749,-243.635 150.749,-225.635 182.749,-225.635 182.749,-243.635"/>
<text text-anchor="middle" x="166.749" y="-232.435" font-family="Times New Roman,serif" font-size="9.00">dotx</text>
</g>
<!-- dotx&#45;&gt;PressRIGHT -->
<g id="edge6" class="edge"><title>dotx&#45;&gt;PressRIGHT</title>
<path fill="none" stroke="green" stroke-width="0.1918" stroke-dasharray="1,5" d="M162.412,-225.355C157.322,-215.639 148.457,-198.717 139.676,-181.954"/>
<polygon fill="green" stroke="green" stroke-width="0.1918" points="142.572,-179.939 134.831,-172.705 136.371,-183.188 142.572,-179.939"/>
</g>
<!-- dotx&#45;&gt;PressLEFT -->
<g id="edge5" class="edge"><title>dotx&#45;&gt;PressLEFT</title>
<path fill="none" stroke="red" stroke-width="0.250218" d="M171.004,-225.355C176.416,-214.825 186.177,-195.833 195.47,-177.753"/>
<polygon fill="red" stroke="red" stroke-width="0.250218" points="198.803,-178.924 200.261,-168.43 192.577,-175.725 198.803,-178.924"/>
</g>
<!-- doty -->
<g id="node9" class="node"><title>doty</title>
<polygon fill="lightgray" stroke="black" points="340.749,-243.635 306.749,-243.635 306.749,-225.635 340.749,-225.635 340.749,-243.635"/>
<text text-anchor="middle" x="323.749" y="-232.435" font-family="Times New Roman,serif" font-size="9.00">doty</text>
</g>
<!-- doty&#45;&gt;PressDOWN -->
<g id="edge2" class="edge"><title>doty&#45;&gt;PressDOWN</title>
<path fill="none" stroke="red" stroke-width="0.880985" d="M323.749,-225.355C323.749,-216.766 323.749,-202.545 323.749,-187.781"/>
<polygon fill="red" stroke="red" stroke-width="0.880985" points="327.249,-187.536 323.749,-177.536 320.249,-187.536 327.249,-187.536"/>
</g>
<!-- PressUP -->
<g id="node10" class="node"><title>PressUP</title>
<ellipse fill="lightblue" stroke="black" cx="624.749" cy="-411.286" rx="33.8824" ry="33.8824"/>
<text text-anchor="middle" x="624.749" y="-409.086" font-family="Times New Roman,serif" font-size="9.00">PressUP</text>
</g>
<!-- 928&#45;&gt;PressDOWN -->
<g id="edge12" class="edge"><title>928&#45;&gt;PressDOWN</title>
<path fill="none" stroke="green" stroke-width="0.182771" d="M452.65,-223.559C433.754,-212.814 403.482,-194.963 378.749,-177.421 374.641,-174.508 370.445,-171.381 366.293,-168.181"/>
<polygon fill="green" stroke="green" stroke-width="0.182771" points="368.423,-165.404 358.397,-161.977 364.098,-170.908 368.423,-165.404"/>
</g>
<!-- 928&#45;&gt;PressLEFT -->
<g id="edge21" class="edge"><title>928&#45;&gt;PressLEFT</title>
<path fill="none" stroke="red" stroke-width="0.350756" d="M449.784,-231.03C411.714,-225.621 329.542,-210.783 268.749,-177.421 263.951,-174.789 259.235,-171.613 254.73,-168.181"/>
<polygon fill="red" stroke="red" stroke-width="0.350756" points="256.842,-165.387 246.878,-161.788 252.423,-170.816 256.842,-165.387"/>
</g>
<!-- 1828 -->
<g id="node15" class="node"><title>1828</title>
<ellipse fill="white" stroke="black" cx="412.749" cy="-131.459" rx="25" ry="25"/>
<text text-anchor="middle" x="412.749" y="-129.259" font-family="Times New Roman,serif" font-size="9.00">1828</text>
</g>
<!-- 928&#45;&gt;1828 -->
<g id="edge24" class="edge"><title>928&#45;&gt;1828</title>
<path fill="none" stroke="green" stroke-width="0.637706" d="M460.379,-215.546C451.912,-200.775 439.769,-179.594 429.863,-162.314"/>
<polygon fill="green" stroke="green" stroke-width="0.637706" points="432.638,-160.117 424.628,-153.182 426.565,-163.598 432.638,-160.117"/>
</g>
<!-- 928&#45;&gt;1393 -->
<g id="edge22" class="edge"><title>928&#45;&gt;1393</title>
<path fill="none" stroke="green" stroke-width="0.116709" stroke-dasharray="1,5" d="M466.953,-213.702C464.56,-178.026 465.692,-102.912 468.986,-59.2135"/>
<polygon fill="green" stroke="green" stroke-width="0.116709" points="472.488,-59.3447 469.845,-49.0849 465.513,-58.7537 472.488,-59.3447"/>
</g>
<!-- 928&#45;&gt;1463 -->
<g id="edge23" class="edge"><title>928&#45;&gt;1463</title>
<path fill="none" stroke="red" stroke-width="0.541769" d="M481.945,-216.472C491.779,-201.397 506.289,-179.154 517.908,-161.341"/>
<polygon fill="red" stroke="red" stroke-width="0.541769" points="521.149,-162.78 523.681,-152.492 515.286,-158.955 521.149,-162.78"/>
</g>
<!-- 1828&#45;&gt;1393 -->
<g id="edge25" class="edge"><title>1828&#45;&gt;1393</title>
<path fill="none" stroke="red" stroke-width="0.269641" d="M424.998,-109.772C434.254,-94.1396 447.082,-72.4739 457.394,-55.0585"/>
<polygon fill="red" stroke="red" stroke-width="0.269641" points="460.442,-56.7812 462.525,-46.3932 454.418,-53.2147 460.442,-56.7812"/>
</g>
<!-- 1071&#45;&gt;928 -->
<g id="edge14" class="edge"><title>1071&#45;&gt;928</title>
<path fill="none" stroke="red" stroke-width="0.21175" d="M510.375,-295.419C503.503,-285.051 495.055,-272.306 487.728,-261.251"/>
<polygon fill="red" stroke="red" stroke-width="0.21175" points="490.585,-259.227 482.143,-252.825 484.75,-263.094 490.585,-259.227"/>
</g>
<!-- 1393&#45;&gt;928 -->
<g id="edge19" class="edge"><title>1393&#45;&gt;928</title>
<path fill="none" stroke="red" stroke-width="0.338789" stroke-dasharray="1,5" d="M478.773,-49.4109C480.916,-87.3965 479.627,-161.932 476.242,-203.61"/>
<polygon fill="red" stroke="red" stroke-width="0.338789" points="472.744,-203.422 475.311,-213.702 479.715,-204.065 472.744,-203.422"/>
</g>
</g>
</svg>
